<svg width="24" height="24" viewBox="0 0 24 24" fill="none" xmlns="http://www.w3.org/2000/svg">
<path fill-rule="evenodd" clip-rule="evenodd" d="M13 16.9C15.2822 16.4367 17 14.419 17 12C17 9.23858 14.7614 7 12 7C9.23858 7 7 9.23858 7 12C7 14.419 8.71776 16.4367 11 16.9V18V19V20C11 20.5523 11.4477 21 12 21C12.5523 21 13 20.5523 13 20V19V18V16.9ZM18 12C18 14.6124 16.3304 16.8349 14 17.6586V20C14 21.1046 13.1046 22 12 22C10.8954 22 10 21.1046 10 20V17.6586C7.66962 16.8349 6 14.6124 6 12C6 8.68629 8.68629 6 12 6C15.3137 6 18 8.68629 18 12Z" fill="black"/>
<line x1="18.6464" y1="5.64645" x2="20.6464" y2="3.64645" stroke="black"/>
<line x1="20" y1="11.5" x2="23" y2="11.5" stroke="black"/>
<line x1="18.2236" y1="17.5528" x2="20.2236" y2="18.5528" stroke="black"/>
<line x1="6.35355" y1="17.3536" x2="4.93934" y2="18.7678" stroke="black"/>
<path d="M4 11.5H1" stroke="black"/>
<line x1="5.64645" y1="5.35355" x2="3.64645" y2="3.35355" stroke="black"/>
<line x1="12.5" y1="4" x2="12.5" y2="1" stroke="black"/>
</svg>
