<svg width="16" height="16" viewBox="0 0 16 16" fill="none" xmlns="http://www.w3.org/2000/svg">
<path d="M9.99984 2.66669C7.05317 2.66669 4.6665 5.05335 4.6665 8.00002C4.6665 10.9467 7.05317 13.3334 9.99984 13.3334C12.9465 13.3334 15.3332 10.9467 15.3332 8.00002C15.3332 5.05335 12.9465 2.66669 9.99984 2.66669ZM9.99984 12C7.79317 12 5.99984 10.2067 5.99984 8.00002C5.99984 5.79335 7.79317 4.00002 9.99984 4.00002C12.2065 4.00002 13.9998 5.79335 13.9998 8.00002C13.9998 10.2067 12.2065 12 9.99984 12Z" fill="#4DA6FF"/>
<path d="M1.99984 8.00003C1.99984 6.26003 3.11317 4.78003 4.6665 4.23336V2.84003C2.3665 3.43336 0.666504 5.51336 0.666504 8.00003C0.666504 10.4867 2.3665 12.5667 4.6665 13.16V11.7667C3.11317 11.22 1.99984 9.74003 1.99984 8.00003V8.00003Z" fill="#4DA6FF"/>
</svg>
